# AST/ASF file generated using VICON BodyLanguage
# -----------------------------------------------
:version 1.10
:name VICON
:units
  mass 1.0
  length 0.45
  angle deg
:documentation
   .ast/.asf automatically generated from VICON data using
   VICON BodyBuilder and BodyLanguage model FoxedUp or BRILLIANT.MOD
:root
   order TX TY TZ RX RY RZ
   axis XYZ
   position 0 0 0  
   orientation 0 0 0 
:bonedata
  begin
     id 1 
     name lhipjoint
     direction 0.537252 -0.787203 0.302774 
     length 2.29576 
     axis 0 0 0  XYZ
  end
  begin
     id 2 
     name lfemur
     direction 0.34202 -0.939693 0  
     length 7.31114  
     axis 0 0 20  XYZ
    dof rx ry rz
    limits (-160.0 20.0)
           (-70.0 70.0)
           (-60.0 70.0)
  end
  begin
     id 3 
     name ltibia
     direction 0.34202 -0.939693 0   
     length 8.36008   
     axis 0 0 20   XYZ
    dof rx
    limits (-10.0 170.0)
  end
  begin
     id 4 
     name lfoot
     direction 0.0969116 -0.266263 0.959016   
     length 2.16704   
     axis -90 7.62852e-016 20   XYZ
    dof rx rz
    limits (-45.0 90.0)
           (-70.0 20.0)
  end
  begin
     id 5 
     name ltoes
     direction 1.53563e-011 -4.21779e-011 1   
     length 1.08338   
     axis -90 7.62852e-016 20   XYZ
    dof rx
    limits (-90.0 20.0)
  end
  begin
     id 6 
     name rhipjoint
     direction -0.588228 -0.754791 0.290308   
     length 2.39434  
     axis 0 0 0  XYZ 
  end
  begin
     id 7 
     name rfemur
     direction -0.34202 -0.939693 0   
     length 7.45207   
     axis 0 0 -20   XYZ
    dof rx ry rz
    limits (-160.0 20.0)
           (-70.0 70.0)
           (-70.0 60.0)
  end
  begin
     id 8 
     name rtibia
     direction -0.34202 -0.939693 0   
     length 8.03565   
     axis 0 0 -20   XYZ
    dof rx
    limits (-10.0 170.0)
 end
 begin
     id 9 
     name rfoot
     direction -0.107009 -0.294004 0.949795   
     length 2.11509  
     axis -90 -7.62852e-016 -20   XYZ
    dof rx rz
    limits (-45.0 90.0)
           (-20.0 70.0)
  end
  begin
     id 10 
     name rtoes
     direction -1.53533e-011 -4.22004e-011 1   
     length 1.05493   
     axis -90 -7.62852e-016 -20   XYZ
    dof rx
    limits (-90.0 20.0)
  end
  begin
     id 11 
     name lowerback
     direction -0.0115208 0.997969 -0.0626515   
     length 2.03153   
     axis 0 0 0   XYZ
    dof rx ry rz
    limits (-20.0 45.0)
           (-30.0 30.0)
           (-30.0 30.0)
  end
  begin
     id 12 
     name upperback
     direction -0.00423475 0.999974 -0.00583614   
     length 2.03619   
     axis 0 0 0   XYZ
    dof rx ry rz
    limits (-20.0 45.0)
           (-30.0 30.0)
           (-30.0 30.0)
  end
  begin
     id 13 
     name thorax
     direction 0.00289429 0.999728 0.0231573   
     length 2.03921   
     axis 0 0 0   XYZ
    dof rx ry rz
    limits (-20.0 45.0)
           (-30.0 30.0)
           (-30.0 30.0)
  end
  begin
     id 14 
     name lowerneck
     direction 0.0188995 0.987777 0.154721   
     length 1.78836   
     axis 0 0 0   XYZ
    dof rx ry rz
    limits (-20.0 45.0)
           (-30.0 30.0)
           (-30.0 30.0)
  end
  begin
     id 15 
     name upperneck
     direction -0.00612612 0.992995 -0.118   
     length 1.81789   
     axis 0 0 0   XYZ
    dof rx ry rz
    limits (-20.0 45.0)
           (-30.0 30.0)
           (-30.0 30.0)
  end
  begin
     id 16
     name head
     direction -0.00420226 0.998397 -0.0564482  
     length 1.82234  
     axis 0 0 0   XYZ
    dof rx ry rz
    limits (-20.0 45.0)
           (-30.0 30.0)
           (-30.0 30.0)
  end
  begin
     id 17 
     name lclavicle
     direction 0.916488 0.396539 0.0529676  
     length 3.51732  
     axis 0 0 0   XYZ
    dof ry rz
    limits (-20.0 10.0)
           (0.0 20.0)
  end
  begin
     id 18 
     name lhumerus
     direction 1 -4.4896e-011 8.36962e-028   
     length 5.45077   
     axis 180 -30 -90   XYZ
    dof rx ry rz
    limits (-60.0 90.0)
           (-90.0 90.0)
           (-90.0 90.0)
  end
  begin
     id 19
     name lradius
     direction 1 -4.48962e-011 3.01407e-027   
     length 3.05488   
     axis 180 -30 -90   XYZ
    dof rx
    limits (-10.0 170.0)
  end
  begin
     id 20
     name lwrist
     direction 1 -4.49002e-011 4.72961e-027   
     length 1.52744   
     axis -2.72261e-015 90 90   XYZ
    dof ry
    limits (-180.0 0.0)
 end
  begin
     id 21 
     name lhand
     direction 1 -4.4899e-011 9.45681e-027   
     length 0.638818   
     axis -6.0311e-015 90 90   XYZ
    dof rx rz
    limits (-90.0 90.0)
           (-45.0 45.0)
  end
  begin
     id 22 
     name lfingers
     direction 1 -4.48871e-011 1.88632e-026   
     length 0.515032   
     axis -1.20625e-014 90 90   XYZ
    dof rx
    limits (0.0 90.0)
  end
  begin
     id 23
     name lthumb
     direction 0.707107 -6.34964e-011 0.707107   
     length 0.739485   
     axis -90 45 6.32835e-014   XYZ
    dof rx rz
    limits (-45.0 45.0)
           (-45.0 45.0)
  end
  begin
     id 24 
     name rclavicle
     direction -0.949427 0.303202 0.0815894   
     length 3.76167  
     axis 0 0 0   XYZ 
    dof ry rz
    limits (-10.0 20.0)
           (-20.0 0.0)
  end
  begin
     id 25 
     name rhumerus
     direction -1 -4.48971e-011 -6.43969e-018  
     length 4.88702   
     axis 180 30 90   XYZ
    dof rx ry rz
    limits (-90.0 60.0)
           (-90.0 90.0)
           (-90.0 90.0)
  end
  begin
     id 26 
     name rradius
     direction -1 -4.48987e-011 5.46662e-027   
     length 3.22603   
     axis 180 30 90   XYZ
    dof rx
    limits (-10.0 170.0)
  end
  begin
     id 27 
     name rwrist
     direction -1 -4.48956e-011 4.72476e-027   
     length 1.61302   
     axis -2.72261e-015 -90 -90   XYZ
    dof ry
    limits (-180.0 0.0)
  end
  begin
     id 28
     name rhand
     direction -1 -4.4889e-011 9.43571e-027   
     length 0.716293   
     axis -6.0311e-015 -90 -90   XYZ
    dof rx rz
    limits (-90.0 90.0)
           (-45.0 45.0)
  end
  begin
     id 29
     name rfingers
     direction -1 -4.48887e-011 1.88701e-026   
     length 0.577494   
     axis -1.20625e-014 -90 -90   XYZ
    dof rx
    limits (0.0 90.0)
  end
  begin
     id 30
     name rthumb
     direction -0.707107 -6.34825e-011 0.707107   
     length 0.829169   
     axis -90 -45 -6.32835e-014   XYZ
    dof rx rz
    limits (-45.0 45.0)
           (-45.0 45.0)
  end
:hierarchy
  begin
    root lhipjoint rhipjoint lowerback
    lhipjoint lfemur
    lfemur ltibia
    ltibia lfoot
    lfoot ltoes
    rhipjoint rfemur
    rfemur rtibia
    rtibia rfoot
    rfoot rtoes
    lowerback upperback
    upperback thorax
    thorax lowerneck lclavicle rclavicle
    lowerneck upperneck
    upperneck head
    lclavicle lhumerus
    lhumerus lradius
    lradius lwrist
    lwrist lhand lthumb
    lhand lfingers
    rclavicle rhumerus
    rhumerus rradius
    rradius rwrist
    rwrist rhand rthumb
    rhand rfingers
  end

#!OML:ASF F:\VICON\USERDATA\INSTALL\rory3\rory3.ASF
:FULLY-SPECIFIED
:DEGREES
509
root 1.31349 18.5025 -0.358178 173.562 90.1884 162.245
lowerback -6.98782 -1.20532 -0.781087
upperback -2.65106 -1.49181 -0.00595752
thorax 1.20316 -0.716099 0.31494
lowerneck -16.655 -1.27115 0.305241
upperneck 21.5268 -1.25173 -1.74313
head 9.54052 -0.685737 -0.805775
rclavicle 9.7156e-015 -1.78906e-015
rhumerus -28.9553 -5.49843 -86.6181
rradius 40.3957
rwrist -156.057
rhand -22.7495 -5.01187
rfingers 7.12502
rthumb 3.68499 -34.9598
lclavicle 9.7156e-015 -1.78906e-015
lhumerus -35.5248 -13.4331 89.8688
lradius 37.4614
lwrist 17.206
lhand -10.3227 28.4598
lfingers 7.12502
lthumb 15.6728 57.845
rfemur -5.71059 -10.7026 16.0913
rtibia 5.56597e-015
rfoot -5.46117 -0.0601443
rtoes -17.3253
lfemur -15.2242 9.93395 -19.8332
ltibia 19.6387
lfoot -15.2423 -4.00946
ltoes -25.0138
510
root 1.3193 18.5003 -0.350261 119.91 90.0874 108.64
lowerback -7.01432 -1.18962 -0.725988
upperback -2.65333 -1.47409 0.00117189
thorax 1.21411 -0.70732 0.292265
lowerneck -16.518 -1.25976 0.271069
upperneck 21.2998 -1.23578 -1.73133
head 9.43607 -0.680934 -0.790836
rclavicle 3.54085e-015 -7.45443e-015
rhumerus -28.8904 -5.12766 -86.7207
rradius 40.4787
rwrist -156.218
rhand -22.9496 -5.06806
rfingers 7.12502
rthumb 3.49181 -35.0192
lclavicle 3.54085e-015 -7.45443e-015
lhumerus -35.4796 -13.0622 89.7888
lradius 37.3229
lwrist 16.7542
lhand -10.1317 28.3298
lfingers 7.12502
lthumb 15.8569 57.7005
rfemur -5.59072 -10.841 16.146
rtibia -7.95139e-016
rfoot -5.54959 0.0178074
rtoes -17.1277
lfemur -15.1774 9.95303 -19.7534
ltibia 19.67
lfoot -15.2294 -4.16616
ltoes -24.7925
511
root 1.32433 18.5006 -0.343013 45.6857 90.2124 34.4193
lowerback -7.108 -1.19127 -0.65548
upperback -2.63374 -1.47994 0.00152621
thorax 1.28449 -0.71062 0.25042
lowerneck -16.4442 -1.24902 0.30083
upperneck 21.1349 -1.2268 -1.76075
head 9.3644 -0.6787 -0.802816
rclavicle -7.24943e-015 2.68359e-015
rhumerus -28.7647 -4.67557 -86.8885
rradius 40.5682
rwrist -156.472
rhand -23.0238 -5.23266
rfingers 7.12502
rthumb 3.42009 -35.185
lclavicle -7.24943e-015 2.68359e-015
lhumerus -35.3006 -12.4615 89.5998
lradius 37.1082
lwrist 16.1467
lhand -9.91575 28.2044
lfingers 7.12502
lthumb 16.0648 57.5585
rfemur -5.53808 -11.0294 16.2369
rtibia -1.11319e-014
rfoot -5.5309 0.056628
rtoes -17.2546
lfemur -15.227 10.0342 -19.6681
ltibia 19.7496
lfoot -15.31 -4.3761
ltoes -25.295
512
root 1.32814 18.5011 -0.333445 40.3333 90.3721 29.0427
lowerback -7.21382 -1.18765 -0.604411
upperback -2.62079 -1.47783 0.0287735
thorax 1.35587 -0.709641 0.247578
lowerneck -16.3707 -1.24327 0.341507
upperneck 20.9326 -1.21614 -1.84471
head 9.27953 -0.681327 -0.834857
rclavicle 1.40578e-014 -8.44835e-015
rhumerus -28.6707 -4.01332 -87.0792
rradius 40.7353
rwrist -156.848
rhand -22.8011 -5.42568
rfingers 7.12502
rthumb 3.6352 -35.3744
lclavicle 1.40578e-014 -8.44835e-015
lhumerus -35.1683 -12.1019 89.5244
lradius 36.9107
lwrist 15.8017
lhand -9.83636 28.0514
lfingers 7.12502
lthumb 16.1412 57.3992
rfemur -5.53227 -11.1608 16.3621
rtibia 1.90833e-014
rfoot -5.55378 0.0834728
rtoes -17.352
lfemur -15.301 9.88863 -19.536
ltibia 19.8273
lfoot -15.285 -4.42177
ltoes -24.9027
513
root 1.33389 18.5033 -0.325687 36.1818 90.5016 24.8522
lowerback -7.31679 -1.18474 -0.583271
upperback -2.62166 -1.47461 0.0652641
thorax 1.41241 -0.707749 0.271364
lowerneck -16.4752 -1.23884 0.36786
upperneck 20.8936 -1.19905 -1.93257
head 9.28466 -0.682438 -0.86803
rclavicle 1.35733e-014 -1.88845e-015
rhumerus -28.5499 -3.56499 -87.1707
rradius 40.7925
rwrist -157.083
rhand -22.7837 -5.57997
rfingers 7.12502
rthumb 3.65195 -35.5284
lclavicle 1.35733e-014 -1.88845e-015
lhumerus -35.103 -12.0372 89.5852
lradius 36.7358
lwrist 15.74
lhand -9.95514 28.0168
lfingers 7.12502
lthumb 16.0268 57.3739
rfemur -5.52853 -11.2819 16.4391
rtibia -1.59028e-014
rfoot -5.62075 0.114798
rtoes -17.2482
lfemur -15.3182 9.80008 -19.4669
ltibia 19.8818
lfoot -15.2123 -4.48746
ltoes -23.8363
514
root 1.34161 18.5028 -0.319789 24.5889 90.6126 13.255
lowerback -7.38465 -1.16835 -0.616619
upperback -2.63379 -1.44867 0.0482108
thorax 1.43764 -0.69434 0.273487
lowerneck -16.6011 -1.2525 0.426027
upperneck 20.8776 -1.22007 -2.00079
head 9.30106 -0.696594 -0.904995
rclavicle -1.97107e-014 -8.44835e-015
rhumerus -28.4583 -3.34327 -87.1928
rradius 40.8201
rwrist -157.223
rhand -22.9495 -5.74359
rfingers 7.12502
rthumb 3.49191 -35.6947
lclavicle -1.97107e-014 -8.44835e-015
lhumerus -35.074 -12.0172 89.6506
lradius 36.6248
lwrist 15.6729
lhand -9.94745 28.1564
lfingers 7.12502
lthumb 16.0342 57.5129
rfemur -5.46889 -11.4361 16.3824
rtibia 2.38542e-014
rfoot -5.66504 0.167877
rtoes -17.2037
lfemur -15.2553 9.72596 -19.5048
ltibia 19.9064
lfoot -15.2829 -4.53443
ltoes -23.8275
515
root 1.34654 18.5008 -0.310438 18.42 90.8468 7.10167
lowerback -7.34345 -1.18203 -0.610164
upperback -2.68412 -1.46609 0.0348278
thorax 1.36265 -0.702238 0.256126
lowerneck -16.587 -1.28417 0.362784
upperneck 20.7585 -1.26359 -1.95019
head 9.25735 -0.717331 -0.881445
rclavicle 7.15625e-015 7.85199e-015
rhumerus -28.4432 -3.159 -87.258
rradius 40.897
rwrist -157.243
rhand -23.0173 -5.81403
rfingers 7.12502
rthumb 3.42639 -35.7662
lclavicle 7.15625e-015 7.85199e-015
lhumerus -35.0823 -11.8869 89.6567
lradius 36.5334
lwrist 15.5475
lhand -9.68392 28.2947
lfingers 7.12502
lthumb 16.288 57.6306
rfemur -5.38537 -11.6793 16.3987
rtibia -1.98785e-014
rfoot -5.70682 0.237531
rtoes -17.3761
lfemur -15.3175 9.74911 -19.4883
ltibia 19.9235
lfoot -15.386 -4.70473
ltoes -25.0467
516
root 1.35237 18.4996 -0.300798 20.8969 91.0938 9.59828
lowerback -7.30323 -1.18813 -0.483942
upperback -2.75971 -1.48122 0.0321049
thorax 1.25941 -0.709041 0.183116
lowerneck -16.3656 -1.31164 0.352885
upperneck 20.5681 -1.31348 -1.90627
head 9.15027 -0.736307 -0.867113
rclavicle -3.8266e-015 -8.94531e-015
rhumerus -28.5334 -2.7696 -87.4223
rradius 41.0203
rwrist -157.302
rhand -22.8713 -5.65547
rfingers 7.12502
rthumb 3.56734 -35.6054
lclavicle -3.8266e-015 -8.94531e-015
lhumerus -35.2145 -11.9447 89.7064
lradius 36.4612
lwrist 15.5489
lhand -9.54694 28.3259
lfingers 7.12502
lthumb 16.4199 57.6509
rfemur -5.30435 -11.8923 16.5386
rtibia 1.90833e-014
rfoot -5.75256 0.288928
rtoes -17.2617
lfemur -15.3495 9.69711 -19.3319
ltibia 19.8999
lfoot -15.4091 -4.85158
ltoes -25.7334
